<?xml version="1.0" standalone="no"?>
<!DOCTYPE svg PUBLIC "-//W3C//DTD SVG 20010904//EN"
 "http://www.w3.org/TR/2001/REC-SVG-20010904/DTD/svg10.dtd">
<svg version="1.0" xmlns="http://www.w3.org/2000/svg"
 width="204.000000pt" height="192.000000pt" viewBox="0 0 204.000000 192.000000"
 preserveAspectRatio="xMidYMid meet">

<g transform="translate(0.000000,192.000000) scale(0.100000,-0.100000)"
fill="#000000" stroke="none">
<path d="M940 1661 c-289 -33 -520 -230 -612 -521 -33 -107 -33 -283 0 -390
95 -301 331 -495 640 -525 125 -13 304 28 420 97 92 53 220 189 269 284 146
282 105 600 -109 829 -159 170 -377 251 -608 226z m222 -92 c76 -15 203 -80
270 -136 105 -88 173 -196 207 -331 50 -193 6 -400 -118 -555 -60 -76 -109
-116 -203 -167 -104 -56 -187 -73 -323 -67 -137 6 -217 30 -316 96 -192 127
-291 308 -292 536 0 97 25 211 65 288 79 156 230 278 403 328 70 20 227 24
307 8z"/>
<path d="M985 1466 c-66 -104 -72 -225 -15 -318 16 -26 30 -52 30 -57 0 -12
-49 -51 -64 -51 -6 0 -20 16 -30 35 -23 42 -90 99 -143 122 -49 21 -146 20
-200 -2 -42 -17 -42 -18 -29 -43 26 -50 96 -120 142 -142 49 -24 128 -31 205
-17 l46 9 31 -89 c26 -73 52 -196 52 -243 0 -7 -13 -10 -31 -8 -26 2 -33 9
-44 40 -7 21 -20 49 -29 63 -26 40 -124 112 -185 135 -63 24 -206 48 -218 36
-15 -14 53 -119 114 -177 51 -47 76 -62 130 -79 38 -12 88 -24 113 -27 59 -8
80 -19 80 -43 0 -11 4 -20 9 -20 4 0 6 11 3 25 -4 22 -1 25 27 25 26 0 31 -4
31 -25 0 -31 17 -33 22 -3 2 18 10 23 33 23 25 0 30 -3 27 -22 -4 -31 14 -29
22 2 4 15 15 26 29 29 119 23 149 31 197 52 85 39 186 150 204 225 l6 26 -85
-13 c-180 -29 -305 -110 -350 -228 -16 -40 -21 -46 -48 -46 l-29 0 7 68 c5 56
64 254 80 270 2 3 32 -1 66 -7 95 -19 177 1 244 61 43 37 98 115 91 127 -9 15
-99 35 -151 34 -87 -1 -164 -47 -237 -142 l-26 -34 -33 23 c-19 13 -35 24 -37
26 -2 1 10 21 26 45 49 76 64 161 41 243 -9 34 -75 146 -86 146 -2 0 -19 -24
-38 -54z m80 -41 c27 -43 30 -57 30 -129 0 -71 -4 -87 -30 -133 -17 -29 -35
-53 -42 -53 -6 0 -25 28 -42 62 -44 86 -43 159 1 246 18 34 37 61 43 59 5 -2
24 -25 40 -52z m-314 -245 c37 -10 127 -88 148 -128 10 -19 9 -23 -11 -31 -55
-20 -108 -22 -165 -6 -48 14 -68 27 -116 78 -31 33 -56 65 -54 71 8 24 133 34
198 16z m737 -4 c27 -16 -56 -113 -126 -147 -53 -25 -148 -30 -196 -11 -28 12
-28 12 -11 40 27 42 107 111 140 122 33 10 174 8 193 -4z m-420 -133 c20 -15
38 -28 39 -28 1 0 -13 -41 -32 -90 -19 -50 -34 -105 -35 -122 0 -55 -26 -41
-34 19 -4 29 -21 83 -37 122 -24 56 -27 71 -16 78 8 4 25 16 38 27 31 26 34
26 77 -6z m-386 -153 c91 -28 185 -99 217 -163 13 -26 21 -51 17 -54 -11 -12
-139 15 -196 40 -73 33 -190 158 -190 203 0 10 77 -3 152 -26z m838 25 c0 -18
-39 -76 -84 -123 -32 -34 -72 -64 -106 -79 -55 -24 -185 -52 -195 -41 -28 28
75 147 166 191 68 34 219 69 219 52z"/>
<path d="M770 496 c19 -7 72 -35 116 -63 106 -67 137 -73 206 -39 29 15 78 42
108 62 30 19 69 39 85 43 29 9 29 9 -11 10 -26 1 -70 -11 -115 -30 -55 -24
-89 -31 -134 -31 -45 0 -79 7 -134 31 -44 19 -90 31 -115 31 l-41 -1 35 -13z"/>
</g>
</svg>
